<svg xmlns="http://www.w3.org/2000/svg" width="9.505" height="16.799" viewBox="0 0 9.505 16.799">
    <g id="prefix__noun_mobile_phone_117228" data-name="noun_mobile phone_117228" transform="translate(-234.248 -11.601)" style="opacity:.8">
        <path id="prefix__Path_661" d="M32.267 5h-5.952a1.778 1.778 0 0 0-1.776 1.777v13.245a1.778 1.778 0 0 0 1.776 1.778h5.953a1.779 1.779 0 0 0 1.776-1.776V6.777A1.78 1.78 0 0 0 32.267 5zm-3.861.568h1.769a.4.4 0 0 1 .355.441.4.4 0 0 1-.355.441h-1.769a.4.4 0 0 1-.355-.441.4.4 0 0 1 .355-.441zm.884 15.589a.915.915 0 1 1 .914-.915.916.916 0 0 1-.914.915zm3.774-2.366h-7.547V6.93h7.548z" data-name="Path 661" transform="translate(209.709 6.601)"/>
    </g>
</svg>
