<svg xmlns="http://www.w3.org/2000/svg" width="14.492" height="14.49" viewBox="0 0 14.492 14.49">
    <g id="prefix__phone-call" transform="translate(-.058 -.033)" style="opacity:.8">
        <g id="prefix__Group_948" data-name="Group 948" transform="translate(.058 .033)">
            <path id="prefix__Path_659" d="M14.89 11.88a8 8 0 0 0-2.39-2.066c-.426-.243-.939-.27-1.182.163a9.7 9.7 0 0 1-.766.838 1.428 1.428 0 0 1-2.032-.2L6.976 9.07 5.433 7.527a1.428 1.428 0 0 1-.2-2.032 9.7 9.7 0 0 1 .838-.767c.432-.243.405-.756.163-1.182a8 8 0 0 0-2.067-2.389 1.056 1.056 0 0 0-1.241.187l-.682.681c-2.161 2.161-1.1 4.6 1.064 6.763l1.975 1.975 1.975 1.975c2.161 2.161 4.6 3.226 6.763 1.064l.682-.682a1.057 1.057 0 0 0 .187-1.24z" data-name="Path 659" transform="translate(-.79 -.765)"/>
            <path id="prefix__Path_660" d="M14.394 11.022a8.119 8.119 0 0 0-2.5-2.174 1.489 1.489 0 0 0-.727-.21.9.9 0 0 0-.809.451 9.007 9.007 0 0 1-.7.77 1.158 1.158 0 0 1-1.691-.169L4.89 6.605a1.163 1.163 0 0 1-.17-1.69 9.011 9.011 0 0 1 .771-.7.891.891 0 0 0 .415-.536 1.327 1.327 0 0 0-.175-1A8.109 8.109 0 0 0 3.559.187 1.325 1.325 0 0 0 2 .421l-.68.679A3.726 3.726 0 0 0 .16 4.735a7.683 7.683 0 0 0 2.225 3.511l3.95 3.954c1.544 1.544 3.015 2.327 4.374 2.327a3.869 3.869 0 0 0 2.769-1.262l.682-.682a1.318 1.318 0 0 0 .234-1.561zM13.78 12.2l-.682.682a3.352 3.352 0 0 1-2.389 1.1c-1.211 0-2.556-.73-3.995-2.169L2.765 7.866A7.178 7.178 0 0 1 .683 4.614 3.181 3.181 0 0 1 1.7 1.483L2.382.8a.788.788 0 0 1 .926-.138 7.809 7.809 0 0 1 1.958 2.286.826.826 0 0 1 .123.59.361.361 0 0 1-.183.224l-.041.028a7.922 7.922 0 0 0-.889.822 2.217 2.217 0 0 0-.33.716 3.807 3.807 0 0 1-.4-1.311.272.272 0 0 0-.295-.24.269.269 0 0 0-.24.3 5.132 5.132 0 0 0 1.712 3.131c.007.006.015.008.022.013l2.855 2.85.036.034a.247.247 0 0 0 .028.042 5.606 5.606 0 0 0 3.116 1.419h.02a.269.269 0 0 0 .027-.536 4.734 4.734 0 0 1-1.489-.418 2.328 2.328 0 0 0 .625-.309 7.9 7.9 0 0 0 .822-.889l.028-.041a.374.374 0 0 1 .354-.2.967.967 0 0 1 .458.138 7.465 7.465 0 0 1 2.289 1.96.784.784 0 0 1-.134.929z" data-name="Path 660" transform="translate(-.058 -.033)"/>
        </g>
    </g>
</svg>
