<svg id="Layer_1" enable-background="new 0 0 512 512" height="512" viewBox="0 0 512 512" width="512" xmlns="http://www.w3.org/2000/svg"><path d="m450.428 78.883h-271.509v77.417h281.811v-67.114c-.001-5.666-4.636-10.303-10.302-10.303z" fill="#8c9ba7"/><path d="m178.919 78.883v77.417h38.586v-67.114c0-5.666 4.636-10.303 10.302-10.303z" fill="#798b97"/><path d="m352.855 380.495c0-43.208 35.472-78.36 79.074-78.36 10.161 0 19.869 1.93 28.801 5.405v-152.24h-281.811v200.926c0 3.139-1.256 5.013-3.361 5.013-1.063 0-2.304-.463-3.589-1.338l-72.934-49.704c-2.429-1.655-5.651-2.566-9.075-2.566s-6.648.912-9.077 2.567l-47.027 32.048v60.626c0 5.666 4.636 10.302 10.302 10.302h315.927c-4.628-9.955-7.23-21.019-7.23-32.679z" fill="#fde35a"/><path d="m76.748 402.871v-89.857l-42.892 29.23v60.626c0 5.666 4.636 10.302 10.302 10.302h42.892c-5.666.001-10.302-4.635-10.302-10.301z" fill="#f9c500"/><path d="m0 62.44c0-5.666 4.636-10.302 10.302-10.302h159.315c5.666 0 10.302 4.636 10.302 10.302v293.785c0 5.666-3.831 7.69-8.513 4.501l-72.934-49.704c-4.682-3.19-12.344-3.19-17.026.001l-72.933 49.703c-4.682 3.19-8.513 1.166-8.513-4.5z" fill="#0592fb"/><path d="m32.451 62.44c0-5.666 4.636-10.302 10.302-10.302h-32.451c-5.666.001-10.302 4.636-10.302 10.302v293.785c0 5.666 3.831 7.69 8.513 4.5l23.938-16.313z" fill="#0181fb"/><path d="m116.076 232.318c-1.057 0-2.119-.254-3.092-.761l-23.025-12.068-23.022 12.068c-.973.507-2.036.761-3.092.761-1.379 0-2.751-.429-3.909-1.266-2.047-1.481-3.072-3.996-2.645-6.481l4.397-25.564-18.628-18.098c-1.81-1.765-2.464-4.398-1.68-6.794.78-2.4 2.862-4.147 5.365-4.512l25.741-3.73 11.513-23.254c1.119-2.261 3.43-3.693 5.96-3.693 2.531 0 4.842 1.433 5.961 3.693l11.513 23.254 25.743 3.73c2.503.364 4.583 2.111 5.365 4.512.782 2.395.13 5.029-1.681 6.794l-18.629 18.099 4.397 25.564c.428 2.485-.598 5-2.646 6.481-1.154.837-2.527 1.265-3.906 1.265z" fill="#fdd302"/><path d="m87.831 216.719 4.675-27.179-19.806-19.242c-1.163-1.134-1.868-2.606-2.067-4.156l-23.889 3.462c-2.503.364-4.585 2.111-5.365 4.512-.784 2.395-.13 5.029 1.68 6.794l18.628 18.099-4.397 25.564c-.427 2.485.598 5 2.645 6.481 1.157.837 2.529 1.266 3.909 1.266 1.056 0 2.12-.254 3.092-.761l21.264-11.149c-.441-1.155-.586-2.426-.369-3.691z" fill="#f9c500"/><g fill="#a64b30"><path d="m399.033 229.432h-165.7c-4.142 0-7.5-3.357-7.5-7.5s3.358-7.5 7.5-7.5h165.7c4.142 0 7.5 3.357 7.5 7.5 0 4.142-3.358 7.5-7.5 7.5z"/><path d="m399.033 274.06h-165.7c-4.142 0-7.5-3.358-7.5-7.5 0-4.143 3.358-7.5 7.5-7.5h165.7c4.142 0 7.5 3.357 7.5 7.5 0 4.142-3.358 7.5-7.5 7.5z"/><path d="m405.099 306.786c-1.363-1.876-3.569-3.101-6.065-3.101h-165.7c-4.142 0-7.5 3.358-7.5 7.5 0 4.143 3.358 7.5 7.5 7.5h150.079c6.499-5.021 13.797-9.07 21.686-11.899z"/></g><ellipse cx="431.927" cy="380.495" fill="#00c184" rx="80.073" ry="79.366"/><path d="m384.306 380.495c0-38.321 27.404-70.294 63.848-77.728-5.24-1.068-10.666-1.632-16.225-1.632-44.224 0-80.074 35.529-80.074 79.36 0 43.833 35.85 79.366 80.074 79.366 5.559 0 10.985-.563 16.225-1.633-36.444-7.434-63.848-39.41-63.848-77.733z" fill="#07b17b"/><path d="m424.596 412.721c-3.237 0-6.474-1.221-8.938-3.663l-24.735-24.516c-2.942-2.916-2.963-7.665-.047-10.607s7.664-2.963 10.606-.048l23.113 22.909 43.62-43.234c2.942-2.915 7.69-2.894 10.607.048 2.916 2.941 2.895 7.69-.047 10.606l-45.241 44.841c-2.464 2.443-5.702 3.664-8.938 3.664z" fill="#fff"/></svg>