<svg xmlns="http://www.w3.org/2000/svg" width="32.002" height="39.276" viewBox="0 0 32.002 39.276">
  <g id="flip" transform="translate(-62.001 -41.172)">
    <path id="Path_647" data-name="Path 647" d="M78.73,59.355v2.909a.727.727,0,1,1-1.455,0V59.355a.727.727,0,1,1,1.455,0Zm0-11.637v2.909a.727.727,0,1,1-1.455,0V47.718a.727.727,0,1,1,1.455,0Zm0,5.819v2.909a.727.727,0,1,1-1.455,0V53.537a.727.727,0,1,1,1.455,0Zm0-11.637v2.909a.727.727,0,1,1-1.455,0V41.9a.727.727,0,1,1,1.455,0Zm0,29.093V73.9a.727.727,0,1,1-1.455,0V70.993a.727.727,0,1,1,1.455,0Zm0,5.819v2.909a.727.727,0,0,1-1.455,0V76.811a.727.727,0,1,1,1.455,0Zm0-11.637v2.909a.727.727,0,0,1-1.455,0V65.174a.727.727,0,1,1,1.455,0ZM63.176,51.509A.728.728,0,0,0,62,52.082V70.266a.727.727,0,0,0,1.175.573l11.637-9.092a.727.727,0,0,0,0-1.146Zm.279,17.266v-15.2l9.728,7.6ZM93.6,51.429a.729.729,0,0,0-.767.08L81.191,60.6a.727.727,0,0,0,0,1.146l11.637,9.092A.727.727,0,0,0,94,70.265V52.082A.726.726,0,0,0,93.6,51.429Z" transform="translate(0)" fill="#fff"/>
  </g>
</svg>
