<svg xmlns="http://www.w3.org/2000/svg" id="prefix__Glyph" width="29.089" height="34.055" viewBox="0 0 29.089 34.055">
    <defs>
        <style>
            .prefix__cls-1{fill:#efb577}
        </style>
    </defs>
    <path id="prefix__Path_737" d="M33.156 12.771a11.281 11.281 0 0 1 4.966 1.147V1.419A1.419 1.419 0 0 0 36.7 0h-7.8v7.095a1.419 1.419 0 0 1-1.42 1.419h-2.838a1.419 1.419 0 0 1-1.419-1.419V0h-7.8A1.419 1.419 0 0 0 14 1.419v19.866a1.419 1.419 0 0 0 1.419 1.415H21.9a11.366 11.366 0 0 1 11.26-9.933z" class="prefix__cls-1" data-name="Path 737" transform="translate(-14)"/>
    <path id="prefix__Path_738" d="M49.933 40a9.933 9.933 0 1 0 9.933 9.933A9.933 9.933 0 0 0 49.933 40zm5.676 9.933a2.841 2.841 0 0 1-2.838 2.838h-4.257V54.9a.709.709 0 0 1-1.277.426l-2.98-3.973 2.98-3.973a.709.709 0 0 1 1.277.426v2.128h4.257v-1.42h-2.838v-2.838h2.838a2.841 2.841 0 0 1 2.838 2.838z" class="prefix__cls-1" data-name="Path 738" transform="translate(-30.777 -25.81)"/>
</svg>
